<svg xmlns="http://www.w3.org/2000/svg" width="49.201" height="49.2" viewBox="0 0 49.201 49.2">
  <g id="instagram" transform="translate(-3.7 -5.2)">
    <path id="Path_3" data-name="Path 3" d="M4.4,0A4.4,4.4,0,1,1,0,4.4,4.4,4.4,0,0,1,4.4,0Z" transform="translate(23.7 25.6)" fill="#fd6000"/>
    <path id="Path_1" data-name="Path 1" d="M33.6,19.2h-11a5.465,5.465,0,0,0-3.9,1.4,5.465,5.465,0,0,0-1.4,3.9v11a5.512,5.512,0,0,0,1.5,4,5.637,5.637,0,0,0,3.9,1.4H33.6a5.465,5.465,0,0,0,3.9-1.4A5.123,5.123,0,0,0,39,35.6v-11a5.637,5.637,0,0,0-1.4-3.9A5.354,5.354,0,0,0,33.6,19.2ZM28.1,36.8a6.8,6.8,0,1,1,0-13.6,6.8,6.8,0,1,1,0,13.6Zm7.1-12.3a1.6,1.6,0,1,1,1.6-1.6A1.58,1.58,0,0,1,35.2,24.5Z" fill="#fd6000"/>
    <path id="Path_2" data-name="Path 2" d="M28.3,5.2A24.6,24.6,0,1,0,52.9,29.8,24.582,24.582,0,0,0,28.3,5.2ZM41.4,35.6a7.927,7.927,0,0,1-2.2,5.7,7.782,7.782,0,0,1-5.6,2.1H22.7a7.782,7.782,0,0,1-5.6-2.1,7.534,7.534,0,0,1-2.2-5.7v-11a7.4,7.4,0,0,1,7.8-7.8h11a7.375,7.375,0,0,1,7.7,7.8v11Z" fill="#fd6000"/>
  </g>
</svg>
