<svg xmlns="http://www.w3.org/2000/svg" width="179.661" height="194.044" viewBox="0 0 179.661 194.044">
  <path id="Icon_awesome-pen-alt" data-name="Icon awesome-pen-alt" d="M174.726,28.111,153.634,5.329a15.983,15.983,0,0,0-23.829,0L109.962,26.761,154.883,75.28l19.843-21.432a19.247,19.247,0,0,0,0-25.737Zm-86.6-7.781a13.309,13.309,0,0,0-19.846,0L26.6,65.35a6.408,6.408,0,0,0,0,8.573L34.541,82.5a5.325,5.325,0,0,0,7.941,0L78.21,43.911l7.941,8.573L32.969,109.92C14.549,129.815,2.944,155.889.063,183.853l-.011.087c-.6,5.791,3.933,10.688,9.3,10.047,25.924-3.092,50.1-15.63,68.543-35.549l69.052-74.582L117.9,52.487,88.126,20.33Z" transform="translate(0.001 0)" fill="#fd6000"/>
</svg>
