<svg xmlns="http://www.w3.org/2000/svg" width="49.248" height="49.248" viewBox="0 0 49.248 49.248">
  <path id="twitter" d="M28.348,5.157A24.624,24.624,0,1,0,52.971,29.782,24.626,24.626,0,0,0,28.348,5.157Zm12.4,19.66c.013.266.018.533.018.8,0,8.2-6.242,17.656-17.656,17.656A17.572,17.572,0,0,1,13.6,40.489a12.691,12.691,0,0,0,1.48.086,12.45,12.45,0,0,0,7.707-2.656,6.214,6.214,0,0,1-5.8-4.311,6.061,6.061,0,0,0,1.167.111,6.167,6.167,0,0,0,1.635-.217,6.21,6.21,0,0,1-4.979-6.084c0-.027,0-.053,0-.08a6.184,6.184,0,0,0,2.811.777,6.214,6.214,0,0,1-1.921-8.286A17.618,17.618,0,0,0,28.5,26.312a6.209,6.209,0,0,1,10.574-5.66,12.4,12.4,0,0,0,3.941-1.506,6.223,6.223,0,0,1-2.73,3.433,12.407,12.407,0,0,0,3.565-.977A12.537,12.537,0,0,1,40.752,24.817Z" transform="translate(-3.723 -5.157)" fill="#fd6000"/>
</svg>
